<?xml version="1.0" encoding="UTF-8"?><svg xmlns="http://www.w3.org/2000/svg" viewBox="0 0 16.28 16.28"><defs><style>.d{fill:none;stroke:#009959;stroke-linejoin:round;stroke-width:.28px;}</style></defs><g id="a"/><g id="b"><g id="c"><g><circle class="d" cx="8.14" cy="8.14" r="4.32"/><polygon class="d" points="16.04 8.14 12.25 9.48 14.53 12.79 10.68 11.63 10.58 15.66 8.14 12.46 5.7 15.66 5.6 11.63 1.75 12.79 4.03 9.48 .24 8.14 4.04 6.81 1.75 3.5 5.6 4.65 5.7 .63 8.14 3.82 10.58 .63 10.68 4.65 14.53 3.5 12.25 6.81 16.04 8.14"/><circle class="d" cx="8.14" cy="8.14" r="8"/><line class="d" x1="8.14" y1="12.46" x2="8.14" y2="16.14"/><line class="d" x1="8.14" y1="3.82" x2="8.14" y2=".14"/><line class="d" x1="10.68" y1="11.63" x2="12.84" y2="14.61"/><line class="d" x1="5.6" y1="4.65" x2="3.44" y2="1.67"/><line class="d" x1="12.25" y1="9.48" x2="15.75" y2="10.61"/><line class="d" x1="4.04" y1="6.81" x2=".53" y2="5.67"/><line class="d" x1="12.25" y1="6.81" x2="15.75" y2="5.67"/><line class="d" x1="4.03" y1="9.48" x2=".53" y2="10.61"/><line class="d" x1="10.68" y1="4.65" x2="12.84" y2="1.67"/><line class="d" x1="5.6" y1="11.63" x2="3.44" y2="14.61"/></g></g></g></svg>